<svg width="17" height="18" viewBox="0 0 17 18" fill="none" xmlns="http://www.w3.org/2000/svg">
<path d="M6.11236 16.3111V13.763C6.11236 13.1125 6.64352 12.5852 7.29874 12.5852H9.69388C10.0085 12.5852 10.3103 12.7093 10.5328 12.9302C10.7553 13.1511 10.8803 13.4506 10.8803 13.763V16.3111C10.8783 16.5815 10.9851 16.8416 11.177 17.0335C11.3689 17.2254 11.6301 17.3333 11.9025 17.3333H13.5366C14.2997 17.3353 15.0323 17.0357 15.5727 16.5007C16.113 15.9656 16.4167 15.2391 16.4167 14.4815V7.22237C16.4167 6.61037 16.1434 6.02986 15.6706 5.63721L10.1117 1.22988C9.14476 0.457125 7.7593 0.482075 6.8212 1.28914L1.38922 5.63721C0.893991 6.01828 0.598001 6.60052 0.583374 7.22237V14.4741C0.583374 16.0532 1.87286 17.3333 3.46352 17.3333H5.06028C5.62606 17.3333 6.08587 16.8802 6.08997 16.3185L6.11236 16.3111Z" fill="#130F26"/>
</svg>
