<svg width="19" height="20" viewBox="0 0 19 20" fill="none" xmlns="http://www.w3.org/2000/svg">
<path d="M13.691 0C16.78 0 18.5 1.78 18.5 4.83V15.16C18.5 18.26 16.78 20 13.691 20H5.31C2.27 20 0.5 18.26 0.5 15.16V4.83C0.5 1.78 2.27 0 5.31 0H13.691ZM5.58 13.74C5.28 13.71 4.99 13.85 4.83 14.11C4.67 14.36 4.67 14.69 4.83 14.95C4.99 15.2 5.28 15.35 5.58 15.31H13.42C13.819 15.27 14.12 14.929 14.12 14.53C14.12 14.12 13.819 13.78 13.42 13.74H5.58ZM13.42 9.179H5.58C5.149 9.179 4.8 9.53 4.8 9.96C4.8 10.39 5.149 10.74 5.58 10.74H13.42C13.85 10.74 14.2 10.39 14.2 9.96C14.2 9.53 13.85 9.179 13.42 9.179ZM8.569 4.65H5.58V4.66C5.149 4.66 4.8 5.01 4.8 5.44C4.8 5.87 5.149 6.22 5.58 6.22H8.569C9 6.22 9.35 5.87 9.35 5.429C9.35 5 9 4.65 8.569 4.65Z" fill="#ADADAD"/>
</svg>
