<svg width="20" height="20" viewBox="0 0 20 20" fill="none" xmlns="http://www.w3.org/2000/svg">
<path d="M18.3335 5.41666H13.3335" stroke="white" stroke-width="2" stroke-miterlimit="10" stroke-linecap="round" stroke-linejoin="round"/>
<path d="M4.99984 5.41666H1.6665" stroke="white" stroke-width="2" stroke-miterlimit="10" stroke-linecap="round" stroke-linejoin="round"/>
<path d="M8.33317 8.33333C9.944 8.33333 11.2498 7.0275 11.2498 5.41667C11.2498 3.80584 9.944 2.5 8.33317 2.5C6.72234 2.5 5.4165 3.80584 5.4165 5.41667C5.4165 7.0275 6.72234 8.33333 8.33317 8.33333Z" stroke="white" stroke-width="2" stroke-miterlimit="10" stroke-linecap="round" stroke-linejoin="round"/>
<path d="M18.3333 14.5833H15" stroke="white" stroke-width="2" stroke-miterlimit="10" stroke-linecap="round" stroke-linejoin="round"/>
<path d="M6.6665 14.5833H1.6665" stroke="white" stroke-width="2" stroke-miterlimit="10" stroke-linecap="round" stroke-linejoin="round"/>
<path d="M11.6667 17.5C13.2775 17.5 14.5833 16.1942 14.5833 14.5833C14.5833 12.9725 13.2775 11.6667 11.6667 11.6667C10.0558 11.6667 8.75 12.9725 8.75 14.5833C8.75 16.1942 10.0558 17.5 11.6667 17.5Z" stroke="white" stroke-width="2" stroke-miterlimit="10" stroke-linecap="round" stroke-linejoin="round"/>
</svg>
